<?xml version="1.0" encoding="utf-8"?>
<!-- Generator: Adobe Illustrator 18.0.0, SVG Export Plug-In . SVG Version: 6.00 Build 0)  -->
<!DOCTYPE svg PUBLIC "-//W3C//DTD SVG 1.1//EN" "http://www.w3.org/Graphics/SVG/1.1/DTD/svg11.dtd">
<svg version="1.1" id="Layer_1" xmlns="http://www.w3.org/2000/svg" xmlns:xlink="http://www.w3.org/1999/xlink" x="0px" y="0px"
	 viewBox="136 393 712 202" enable-background="new 136 393 712 202" xml:space="preserve">
<path fill="#231F20" d="M187.5,533.6c-0.8,1.4-2.2,2-2.2-0.3c-0.1-1,0.1-3.9-0.7-4.4c-1.9-1.3-19.1,0.2-21.9,0.5
	c-4.6,0.5-11.1,3.2-16.1,3.7c-3.9,0.4-3.1-4-0.4-5.1c1.2-0.5,2.8-0.4,4.5-0.2c1.8,0.2,3.8,0.5,6,0.2c5.1-0.6,11.8-2.3,17.5-2.9
	c3.9-0.4,10.1-0.6,12.8,1.3C189.9,528.2,188.8,531.3,187.5,533.6 M166.6,565.2c-1.2,0.1-1.8-2.5-1.8-3.5c0-4.1-0.2-8,0-11.7
	c0.4-5.2-1-14.2,1.2-18.7c0.4-0.6,3.9-3.2,3.3,1.6c-1.2,9.8-1.3,20-0.9,28.7C168.4,562.6,168.1,565.2,166.6,565.2"/>
<path fill="#231F20" d="M207.2,554.9c0.2-1.7,0.3-3.5,0-5.4c-0.8-4.3-3.1-5.1-5.7-4c-2.9,1.2-6.1,5.2-6.4,9.3
	c-0.1,2.5,0.4,5.1-1.8,6.5c-0.8,0.5-1.4,0.3-1.6-0.7c0-2.9,0.6-5.8,0.3-8.6c-0.8-10.4-0.8-20.5-0.9-32.1c-0.1-2.6,0.6-7.2,3.4-7.1
	c0.7,0,1.4,1.2,0.1,8.9c-0.6,3.6-0.6,8.6-0.4,13.9c0.1,4.7,0.4,9.3,0.7,13.1c3.6-5.3,14-12.4,15.3-0.2c0.4,3,0.9,7.4,0.4,10.3
	c-0.4,3-2.6,2.3-3.2,0.5C206.8,558,207,556.3,207.2,554.9"/>
<path fill="#231F20" d="M226.5,549.8c-1.2,1.1-4.1,1.7-5.5,2.3c-1.4,0.5-2.4,1-1.1,2.3c4.8,4.8,9,2.7,13-1.3
	c1.2-1.2,2.3-2.4,3.1-3.3c1.6-1.6,2.5,0.9,1.3,2.4c-2.8,3.7-6.6,7.2-11.4,8.2c-12.6,2.7-13.6-16.3-4.5-18.4c2.9-0.7,5.2,0.2,6.3,1.9
	C228.8,545.7,228.4,548.1,226.5,549.8 M223.7,548.4c3.2-1.5,0.6-4.9-3-3.8c-2,0.6-2.5,2.3-2.1,3.3C218.9,549,220.5,550,223.7,548.4"
	/>
<path fill="#231F20" d="M272.5,553.3c-0.2-1.4-0.3-2.7-1-3.2c-2.6-1.6-6.8,3.2-9.5,7.7c-0.6,1.2-2.9,1-3.1-0.7
	c0-2.3-0.3-4.9-0.8-6.7c-0.8-2.5-2.1-3.4-3.9-0.9c-1.1,1.5-1.6,2.8-1.8,4c-0.3,1.2-0.2,2.3-0.3,3.2c-0.1,1.1-1.6,3-2.7,1.6
	c-0.1-1.5-0.4-7.4,0.2-10.3c0.6-2.4,1.8-2.6,3.3-0.2c1.1-1.5,2-3.1,3.8-3.3c3.7-0.5,4.7,4.6,4.9,8.8l0.3-0.5c0.4-0.5,0.8-1,1.1-1.4
	c2.2-3.3,10.1-7.5,12-2.2c0.8,2.2,0.6,3.6,1,5.7c0.1,0.5,0.2,1.1,0.4,1.7c0.4,1-0.2,1.6-1.2,1.4C273,557.8,272.8,555.7,272.5,553.3"
	/>
<path fill="#231F20" d="M278.9,557.3c-2.6-4.7,3.4-17.7,6.4-18.9c2.9-1.2,3,8.3,8.9,5.4c0.8-0.4,2.9-1.9,3.6-2.4
	c1.2-0.8,2.6,0.9,1.4,2c-2.7,2.6-5.7,3.9-7.1,4.4C290,558.7,282.1,563.1,278.9,557.3 M282.3,556c1.5,1.6,5.8-0.2,6.6-7.8
	c-1.2-0.5-2.9-1.7-4.1-4.7C281.4,550.2,281.2,554.8,282.3,556"/>
<path fill="#231F20" d="M297.5,562.1c3.9,0.9,7.9-1,8.6-4.8c1.5-8.5-13.9-11-5.6-17c1.1-0.8,2.5-2,3.6-2.5c3.9-1.6,2.9,2,1,3.1
	c-0.9,0.5-1.9,0.8-2.9,1.1c-0.3,0.2-0.7,0.9-0.1,1.6c1.7,2,3.9,3.3,5.5,5.3c1.8,2.1,2.8,4.8,1.3,8.8c-1.9,5.2-8,8.2-12.3,7.5
	C294.7,564.9,295.5,561.7,297.5,562.1"/>
<path fill="#231F20" d="M321.6,538.6c-1.3,7.5-2.4,21.5-1.2,27.7c1,4.8-2.3,3.9-2.8,0.6c-1.3-8-0.3-19.5,0.8-27.9
	c-2.3-0.1-5.4-0.8-7.8-0.7c-1.4,0.2-1.6-1-0.9-1.9c0.4-0.5,1.3-1.2,2.1-1.2c2.3,0,4.3,0.3,7.1,0.3c0.9-4,1.5-8.2,2.8-12.1
	c1.1-3.2,4.1-1.3,2.5,2.5c-0.7,1.7-1.8,6.6-2.1,9.1c4.2,0,9.1,0.5,11.1,1c1.8,0.4,1.9,3.3,0.3,3.2c-1.9-0.2-3.9-0.5-5.9-0.7
	C325.6,538.3,323.6,538.3,321.6,538.6"/>
<path fill="#231F20" d="M340.9,562.1c3.9,0.9,7.9-1,8.6-4.8c1.5-8.5-13.9-11-5.6-17c1.1-0.8,2.5-2,3.6-2.5c3.9-1.6,2.9,2,1,3.1
	c-0.9,0.5-1.9,0.8-2.9,1.1c-0.3,0.2-0.7,0.9-0.1,1.6c1.7,2,3.9,3.3,5.5,5.3c1.8,2.1,2.8,4.8,1.3,8.8c-1.9,5.2-8,8.2-12.3,7.5
	C338.1,564.9,338.9,561.7,340.9,562.1"/>
<path fill="#231F20" d="M365.7,556.8c-4.1,0.6-4.6-2.8-1.3-3.5c3-0.6,8.8-1.9,6.7-7.4c-1.3-3.3-6.9-2.6-9.8-0.9
	c-2.3,1.4-3.2,6.1-3.3,11.9c-0.2,5.7,0.3,11.9,0.3,15.6c-0.3,2.6-4.2,1.1-3.9-3c0.3-2.9,0.1-6.4,0.3-9.6c0.3-4.5,0.4-8.7,1-12.2
	c0.6-3.6,1.6-6.6,3.8-8.6c1.4-0.5,1.9,1.2,2.2,2.5C374.9,532.7,378.7,554.7,365.7,556.8"/>
<path fill="#231F20" d="M387,549.8c-1.2,1.1-4.1,1.7-5.5,2.3c-1.4,0.5-2.4,1-1.1,2.3c4.8,4.8,9,2.7,13-1.3c1.2-1.2,2.3-2.4,3.1-3.3
	c1.6-1.6,2.5,0.9,1.3,2.4c-2.8,3.7-6.6,7.2-11.4,8.2c-12.6,2.7-13.6-16.3-4.5-18.4c2.9-0.7,5.2,0.2,6.3,1.9
	C389.3,545.7,388.9,548.1,387,549.8 M384.1,548.4c3.2-1.5,0.6-4.9-3-3.8c-2,0.6-2.5,2.3-2.1,3.3C379.4,549,381,550,384.1,548.4"/>
<path fill="#231F20" d="M413,556.2c-0.3,0.8-1.3,1.8-2,2.3c-20.6,13.8-18.3-21.9-5.2-22.4c4.3-0.2,4.9,7.2,2.6,8.2
	c-2.2,1-0.4-5.4-2.9-5.1c-4.8,0.6-9.8,9.5-6.3,15.9c0.7,1.2,2.6,2.6,4.3,2.6c2.9,0.2,5.3-1.9,7.8-3c0.8-0.4,1.3-0.3,1.6-0.2
	C413.2,554.9,413.3,555.4,413,556.2"/>
<path fill="#231F20" d="M416.5,559.2c-2.8-4.7,0.2-10.7,1.6-15.3c0.6-1.9,2.8-1.6,2.3,0.7c-0.3,3.3-1.6,8.2-1.3,11.3
	c0.3,1.9,2.1,4,5.6,0.7c2.4-2.3,4.3-5.5,6.2-8.5c0.4-0.7,0.8-1.2,1.2-1.3c0.6-0.2,0.9,0.5,1,0.9c0.1,0.9-0.3,2.2-0.8,3.2
	c-1.8,2.9-3.8,5.8-6.2,8C423.4,561.4,418.1,562,416.5,559.2 M420.3,530.4c-0.5-1.8,1.4-3.3,2.8-3.5c2.1,1.7,1.9,4.1,0.1,5.9
	C422.2,533.7,421,533,420.3,530.4"/>
<path fill="#231F20" d="M435.3,560.5c-8.5,2-2.3-18.9,3.4-19.6c2.9-0.3,2.9,0.9,4.1,3.3c0,0-1.9,1-3.1,0.7c-2.6,0-4.4,3.2-5.1,6.6
	c-0.6,3-0.6,6.1,0.8,5.8c3.2-0.7,3.5-6.1,3.6-9.2c0.2-2.9,1.9-3.8,3.2-2.9c0.1,2,0.1,3.6,0.1,4.9c0,1.4,0,2.5,0.2,3.3
	c1.8,7.9,6.8,1,8.6-2c1.3-2.1,2.4-0.6,1.8,0.9c-2.2,5.2-8.4,12-12.8,4.4C438.4,558.6,436.4,560.3,435.3,560.5"/>
<path fill="#231F20" d="M454.1,556.5c0.1,1.1,0.8,2.4,1.3,3.2c1.9,3-1.6,4.4-2.5,2.8c-3.6-6.9,1.8-32.1,3.9-40.5
	c0.5-2,1.7-1.6,2.3-0.5c0.6,1.1,1,2.9,0.9,4.7c-0.2,2.2-0.7,4.5-1.4,7C456.8,540.5,453.7,549,454.1,556.5"/>
<path fill="#231F20" d="M480.5,551.7c-0.4,0.9-0.9,1.7-1.4,2.3c-4.9,6.1-6.6,1-6.8-5.4c-0.1-5.1,0.3-9.2,1.3-11.5
	c1-2.2,2.6-1.7,2.3,0.1c-0.7,3.8-0.4,9.3-0.3,12.6c0.1,1.5,0.3,2.6,0.6,3.3c0.2,0.6,0.4,0.6,0.8,0.2c1.4-1.6,2.5-4.8,3.3-7.1
	c0.7-2.1,2.6-2,2.8-0.1c0,6.4,2.3,10.8,4.9,12.4c2.4,1.5,5.3,0.5,6.8-4.7c0.7-2.8,1-6.3,0.3-8.2c-2.1-5.4,1.4-6.3,2.8-2.5
	c2.4,6.5-1.3,15.2-4.1,17.2C486.2,565.4,482.3,558.9,480.5,551.7"/>
<path fill="#231F20" d="M506.3,560.5c-8.5,2-2.3-18.9,3.4-19.6c2.9-0.3,2.9,0.9,4.1,3.3c0,0-1.9,1-3.1,0.7c-2.6,0-4.4,3.2-5.1,6.6
	c-0.6,3-0.6,6.1,0.8,5.8c3.2-0.7,3.5-6.1,3.6-9.2c0.2-2.9,1.9-3.8,3.2-2.9c0.1,2,0.1,3.6,0.1,4.9c0,1.4,0,2.5,0.2,3.3
	c1.8,7.9,6.8,1,8.6-2c1.3-2.1,2.4-0.6,1.8,0.9c-2.2,5.2-8.4,12-12.8,4.4C509.5,558.6,507.4,560.3,506.3,560.5"/>
<path fill="#231F20" d="M535.9,582.7c-0.6-6.1-0.2-11.7,0.3-17c0.5-4.8,1.1-9.6,1-14.5c-2.4,3-4.5,5.9-8,7c-4.6,1.3-9.1-3.7-6.5-9.5
	c0.6-1.3,1.1-2.2,1.6-2.6c0.4-0.5,1.1-0.5,1.4,0.1c0.5,0.8,0.4,2.5,0.1,3.5c-1,3.7,1.4,6.7,4.5,5.7c2.4-0.8,7.5-9.5,8.2-12.5
	c1.2-4.9,4-2.6,3.3,0.5c-2.3,10.1-4.6,31.7-1.9,41.1C540.5,587,536.6,590.4,535.9,582.7"/>
<path fill="#231F20" d="M569.7,538.6c-1.3,7.5-2.4,21.5-1.2,27.7c1,4.8-2.3,3.9-2.8,0.6c-1.3-8-0.3-19.5,0.8-27.9
	c-2.3-0.1-5.4-0.8-7.8-0.7c-1.4,0.2-1.6-1-0.9-1.9c0.4-0.5,1.3-1.2,2.1-1.2c2.3,0,4.3,0.3,7.1,0.3c0.9-4,1.5-8.2,2.8-12.1
	c1.1-3.2,4.1-1.3,2.5,2.5c-0.7,1.7-1.8,6.6-2.1,9.1c4.2,0,9.1,0.5,11.1,1c1.8,0.4,1.9,3.3,0.3,3.2c-1.9-0.2-3.9-0.5-5.9-0.7
	C573.6,538.3,571.6,538.3,569.7,538.6"/>
<path fill="#231F20" d="M575.5,557.3c-2.6-4.7,3.4-17.7,6.4-18.9c2.9-1.2,3,8.3,8.9,5.4c0.8-0.4,2.9-1.9,3.6-2.4
	c1.2-0.8,2.6,0.9,1.4,2c-2.7,2.6-5.7,3.9-7.1,4.4C586.6,558.7,578.7,563.1,575.5,557.3 M578.9,556c1.5,1.6,5.8-0.2,6.6-7.8
	c-1.2-0.5-2.9-1.7-4.1-4.7C578,550.2,577.8,554.8,578.9,556"/>
<path fill="#231F20" d="M607.2,562.1c4,0.9,7.9-1,8.6-4.8c1.5-8.5-13.9-11-5.6-17c1.1-0.8,2.5-2,3.6-2.5c3.9-1.6,2.9,2,1,3.1
	c-0.9,0.5-1.9,0.8-2.9,1.1c-0.3,0.2-0.7,0.9-0.1,1.6c1.7,2,3.9,3.3,5.5,5.3c1.8,2.1,2.8,4.8,1.3,8.8c-1.9,5.2-8,8.2-12.3,7.5
	C604.3,564.9,605.2,561.7,607.2,562.1"/>
<path fill="#231F20" d="M625.7,560.5c-8.5,2-2.3-18.9,3.4-19.6c2.9-0.3,2.9,0.9,4.1,3.3c0,0-1.9,1-3.1,0.7c-2.6,0-4.4,3.2-5.1,6.6
	c-0.6,3-0.6,6.1,0.8,5.8c3.2-0.7,3.5-6.1,3.6-9.2c0.2-2.9,1.9-3.8,3.2-2.9c0.1,2,0.1,3.6,0.1,4.9c0,1.4,0,2.5,0.2,3.3
	c1.8,7.9,6.8,1,8.6-2c1.3-2.1,2.4-0.6,1.8,0.9c-2.2,5.2-8.4,12-12.8,4.4C628.9,558.6,626.8,560.3,625.7,560.5"/>
<path fill="#231F20" d="M655.3,582.7c-0.6-6.1-0.2-11.7,0.3-17c0.5-4.8,1.1-9.6,1-14.5c-2.4,3-4.5,5.9-8,7c-4.6,1.3-9.1-3.7-6.5-9.5
	c0.6-1.3,1.1-2.2,1.6-2.6c0.4-0.5,1.1-0.5,1.4,0.1c0.5,0.8,0.4,2.5,0.1,3.5c-1,3.7,1.4,6.7,4.5,5.7c2.4-0.8,7.5-9.5,8.2-12.5
	c1.2-4.9,4-2.6,3.3,0.5c-2.3,10.1-4.6,31.7-1.9,41.1C659.9,587,656,590.4,655.3,582.7"/>
<path fill="#231F20" d="M693.5,582.7c-0.6-6.1-0.2-11.7,0.3-17c0.5-4.8,1.1-9.6,1-14.5c-2.4,3-4.5,5.9-8,7c-4.6,1.3-9.1-3.7-6.5-9.5
	c0.6-1.3,1.1-2.2,1.6-2.6c0.4-0.5,1.1-0.5,1.4,0.1c0.5,0.8,0.4,2.5,0.1,3.5c-1,3.7,1.4,6.7,4.5,5.7c2.4-0.8,7.4-9.5,8.2-12.5
	c1.2-4.9,4-2.6,3.3,0.5c-2.3,10.1-4.6,31.7-1.9,41.1C698,587,694.2,590.4,693.5,582.7"/>
<path fill="#231F20" d="M704.2,557.3c-2.6-4.7,3.4-17.7,6.4-18.9c2.9-1.2,3,8.3,8.9,5.4c0.8-0.4,2.9-1.9,3.6-2.4
	c1.2-0.8,2.6,0.9,1.4,2c-2.7,2.6-5.7,3.9-7.1,4.4C715.3,558.7,707.4,563.1,704.2,557.3 M707.6,556c1.5,1.6,5.8-0.2,6.6-7.8
	c-1.2-0.5-2.9-1.7-4.1-4.7C706.6,550.2,706.4,554.8,707.6,556"/>
<path fill="#231F20" d="M730.1,560.4c-3.3,3.1-7.2,2-7.6-3.7c-0.3-3.9,1.1-8.7,2-12.5c0.3-1.1,0.5-2.1,0.6-2.9
	c0.8-1.2,1.6-0.9,2.4-0.1c0.4,0.4,0.4,0.5,1,0.7c-0.1,0.6-0.7,2.6-1.3,5.3c-0.6,2.7-1.3,6-1.4,8.6c-0.3,5.2,2.4,3.8,3.8,0.9
	c1.3-2.8,2.3-7.2,2.8-9.5c0.6-3,3.5-2.7,3.2-0.4c-0.7,6.5,1.1,11.4,4.8,10.3c2.1-0.6,3.9-1.5,6.8-5.5c0.4-0.5,0.8-0.9,1.1-0.9
	c0.6-0.1,0.8,0.5,0.8,0.9c0.1,0.8-0.3,1.9-0.7,2.6c-2.3,3.7-10.1,12.8-15.3,2.3C732.4,557.8,731.3,559.3,730.1,560.4"/>
<path fill="#231F20" d="M777.4,556.2c-0.3,0.8-1.3,1.8-2,2.3c-20.6,13.8-18.3-21.9-5.2-22.4c4.3-0.2,4.9,7.2,2.6,8.2
	c-2.2,1-0.4-5.4-2.9-5.1c-4.8,0.6-9.8,9.5-6.3,15.9c0.7,1.2,2.6,2.6,4.3,2.6c2.9,0.2,5.3-1.9,7.8-3c0.8-0.4,1.3-0.3,1.6-0.2
	C777.6,554.9,777.8,555.4,777.4,556.2"/>
<path fill="#231F20" d="M783.1,560.5c-8.5,2-2.3-18.9,3.4-19.6c2.9-0.3,2.9,0.9,4.1,3.3c0,0-1.9,1-3.1,0.7c-2.6,0-4.4,3.2-5.1,6.6
	c-0.6,3-0.6,6.1,0.8,5.8c3.2-0.7,3.5-6.1,3.6-9.2c0.2-2.9,1.9-3.8,3.2-2.9c0.1,2,0.1,3.6,0.1,4.9c0,1.4,0,2.5,0.2,3.3
	c1.8,7.9,6.8,1,8.6-2c1.3-2.1,2.4-0.6,1.8,0.9c-2.2,5.2-8.4,12-12.8,4.4C786.3,558.6,784.2,560.3,783.1,560.5"/>
<path fill="#231F20" d="M813.7,544.6c-6-1.7-9,8.2-9.2,12.8c-0.1,3.2-3.2,3.2-3.1-0.6c0.1-4-0.6-5.4-2.3-8.3
	c-0.5-0.9-1.4-2.3-1.6-3.3c-0.3-1.6,0.9-2.2,2.6-1.9c1.9,0.2,2.7,4.1,3.4,5.9c2.2-3.7,5.2-7.9,10.6-7.9c2.4,0,3.3,1.3,3.3,2.1
	C817.3,544.2,816.1,545.2,813.7,544.6"/>
<path fill="#231F20" d="M828.8,549.8c-1.2,1.1-4.1,1.7-5.5,2.3c-1.4,0.5-2.4,1-1.1,2.3c4.8,4.8,9,2.7,13-1.3
	c1.2-1.2,2.3-2.4,3.1-3.3c1.6-1.6,2.5,0.9,1.3,2.4c-2.8,3.7-6.6,7.2-11.4,8.2c-12.6,2.7-13.7-16.3-4.5-18.4c2.9-0.7,5.2,0.2,6.3,1.9
	C831.1,545.7,830.7,548.1,828.8,549.8 M826,548.4c3.2-1.5,0.6-4.9-3-3.8c-2,0.6-2.5,2.3-2.1,3.3C821.2,549,822.8,550,826,548.4"/>
<path fill="#D71920" d="M371.8,401.6c-11.1-2-22.1,3.3-28.9,12.7c-6.8-9.4-17.8-14.7-28.9-12.7c-16.2,2.9-26.7,20-23.4,38.2
	c0.5,3,1.4,5.8,2.7,8.5c12.4,26.1,47.5,46.8,49.6,48l0.1,0l0,0c2-1.1,37.2-21.9,49.6-48c1.2-2.6,2.2-5.5,2.7-8.5
	C398.5,421.7,388,404.5,371.8,401.6"/>
<path fill="#D71920" d="M401.1,467.2v-2.3h4.9v-35.2h-4.9v-2.1h11.6c1.9,0,3.7-0.1,5.5-0.3c1.8-0.2,3.7-0.5,5.4-0.9h1.4v9.8h0.6
	c1.8-3.4,3.7-5.9,5.8-7.4c2.1-1.6,4.7-2.3,7.6-2.3c3,0,5.3,0.8,7,2.5c1.7,1.7,2.6,4,2.6,6.9c0,2.8-0.9,5-2.6,6.7
	c-1.7,1.6-4,2.5-6.8,2.5c-2.5,0-4.5-0.7-6.2-2c-1.6-1.3-2.5-3-2.5-4.9v-1.2c0-0.7-0.1-1.2-0.2-1.5c-0.1-0.3-0.4-0.5-0.7-0.5
	c-1,0-2,1.6-3,4.7c-1,3.1-1.5,6.5-1.5,10.2v15.2h6.5v2.3L401.1,467.2L401.1,467.2z"/>
<path fill="#D71920" d="M495.9,456.8l1.5,1.1c-1.8,3.5-4.5,6.2-8.1,8.1c-3.6,1.9-7.9,2.8-13,2.8c-7.1,0-12.9-1.9-17.2-5.8
	c-4.3-3.9-6.4-9-6.4-15.4c0-6.4,2.2-11.5,6.5-15.4c4.3-3.8,10.1-5.7,17.4-5.7c6.8,0,12,1.2,15.7,3.5c3.6,2.3,5.5,5.6,5.5,9.9
	c0,2.9-0.8,5.1-2.5,6.8c-1.7,1.7-4,2.5-6.9,2.5c-2.7,0-4.7-0.8-6.3-2.3c-1.6-1.5-2.3-3.6-2.3-6.1c0-1.6,0.3-2.9,0.8-3.9
	c0.6-1,1.5-1.9,2.7-2.7c0.3-0.2,0.7-0.4,1.3-0.7c1.4-0.7,2.1-1.5,2.1-2.4c0-0.7-0.4-1.2-1.2-1.7c-0.8-0.4-1.8-0.6-3.1-0.6
	c-3,0-5.2,1.4-6.6,4.1c-1.4,2.8-2,7.3-2,13.5c0,7.3,0.7,12.3,2.2,15c1.5,2.7,4,4,7.6,4c2.2,0,4.3-0.7,6.3-2.1
	C491.8,461.7,493.9,459.6,495.9,456.8"/>
<path fill="#D71920" d="M501.3,467.2v-2.3h4.8v-53.8h-4.8V409h11.6c1.9,0,3.7-0.1,5.5-0.3c1.8-0.2,3.7-0.5,5.4-0.9h1.5v25.1h0.8
	c1.8-2.3,3.8-3.9,5.9-5c2.1-1,4.6-1.6,7.4-1.6c4.5,0,7.7,1.2,9.6,3.5c1.9,2.3,2.9,6.3,2.9,12.1v23h4.7v2.3h-26.5v-2.3h2.6v-27
	c0-1.5-0.2-2.6-0.7-3.3c-0.4-0.7-1.1-1.1-2-1.1c-1.6,0-2.8,0.9-3.6,2.6c-0.8,1.8-1.3,4.3-1.3,7.7v21h2.6v2.3L501.3,467.2
	L501.3,467.2z"/>
<path fill="#D71920" d="M562.6,467.2v-2.3h5.5v-35.2h-4.9v-2.1H575c1.9,0,3.7-0.1,5.5-0.3c1.8-0.2,3.6-0.5,5.4-0.9h1.4v38.5h5v2.3
	L562.6,467.2L562.6,467.2z"/>
<path fill="#D71920" d="M567,414.9c0-2.5,0.9-4.4,2.7-5.8c1.8-1.3,4.4-2,7.7-2c3.4,0,5.9,0.7,7.7,2c1.8,1.3,2.7,3.3,2.7,5.8
	c0,2.5-0.9,4.4-2.7,5.8c-1.8,1.4-4.4,2-7.7,2c-3.3,0-5.9-0.7-7.7-2C567.9,419.4,567,417.4,567,414.9"/>
<path fill="#D71920" d="M643.2,449.4l-28,0v5c0,3.7,0.8,6.5,2.4,8.4c1.6,1.9,4,2.8,7,2.8c3.2,0,6-0.7,8.6-2.2
	c2.6-1.4,4.9-3.7,7.1-6.7l1.6,1.1c-2,3.6-4.9,6.3-8.7,8.2c-3.7,1.8-8.3,2.7-13.8,2.7c-7.6,0-13.7-1.9-18.2-5.8
	c-4.5-3.9-6.8-9-6.8-15.4c0-6.3,2.3-11.3,6.8-15.2c4.5-3.9,10.4-5.9,17.8-5.9c7.7,0,13.7,2,17.9,6
	C641,436.4,643.1,442.1,643.2,449.4 M623.6,447.5v-13.7c0-1.9-0.3-3.3-1-4.1c-0.7-0.9-1.7-1.3-3.2-1.3c-1.4,0-2.5,0.4-3.1,1.3
	c-0.7,0.9-1,2.3-1,4.1v13.7H623.6z"/>
<path fill="#D71920" d="M658,465.6l-6.9,3H649l-0.7-15.1h2.1c2.1,4,4.9,7.2,8.5,9.5c3.5,2.4,7.2,3.6,10.8,3.6c2,0,3.6-0.4,4.7-1.1
	c1.1-0.7,1.6-1.8,1.6-3.1c0-2.4-4-4.8-12.1-7.2c-1.2-0.4-2.1-0.6-2.7-0.8c-3.8-1.2-6.9-3.1-9.1-5.7c-2.2-2.6-3.4-5.6-3.4-8.9
	c0-3.9,1.4-7.1,4.3-9.6c2.9-2.5,6.5-3.8,11-3.8c1.9,0,3.9,0.2,5.8,0.6c1.9,0.4,3.9,1,5.9,1.8l6.9-2.3h1.7l0.2,13.1h-1.6
	c-1.8-3.4-4.3-6.1-7.4-8.2c-3.1-2.1-6.4-3.1-9.6-3.1c-1.6,0-2.9,0.3-3.8,1c-0.9,0.6-1.4,1.6-1.4,2.7c0,2.3,3.1,4.4,9.2,6.3
	c0.4,0.1,0.7,0.2,0.8,0.2c5.9,1.7,10,3.8,12.4,6.2c2.5,2.4,3.7,5.5,3.7,9.3c0,4.7-1.4,8.3-4.2,10.9c-2.8,2.5-6.8,3.8-12,3.8
	c-2.2,0-4.3-0.2-6.3-0.7C662.4,467.5,660.3,466.7,658,465.6"/>
<path fill="#D71920" d="M692.9,417.3c3.2,0,5.7,2.5,5.7,5.6c0,3.2-2.5,5.6-5.7,5.6c-3.2,0-5.8-2.4-5.8-5.6
	C687.1,419.8,689.7,417.3,692.9,417.3C692.9,417.3,692.9,417.3,692.9,417.3z M692.9,418.5c-2.5,0-4.3,2-4.3,4.5
	c0,2.5,1.8,4.5,4.4,4.5c2.4,0,4.2-2,4.2-4.5C697.2,420.5,695.4,418.5,692.9,418.5C692.9,418.5,692.9,418.5,692.9,418.5z M692,425.8
	h-1.3v-5.6c0.5-0.1,1.2-0.2,2.1-0.2c1.1,0,1.5,0.2,1.9,0.4c0.3,0.2,0.5,0.7,0.5,1.2c0,0.6-0.5,1.1-1.2,1.3v0.1
	c0.6,0.2,0.9,0.6,1,1.4c0.2,0.9,0.3,1.2,0.4,1.4h-1.4c-0.2-0.2-0.3-0.7-0.5-1.3c-0.1-0.6-0.4-0.9-1.2-0.9H692L692,425.8L692,425.8z
	 M692,422.7h0.6c0.7,0,1.3-0.2,1.3-0.8c0-0.5-0.4-0.9-1.2-0.9c-0.3,0-0.6,0-0.7,0.1V422.7z"/>
<path fill="#FFFFFF" d="M383.7,462.1c-0.6,0.4-1.2,0.5-1.9,0.5c-0.7,0-1.2-0.2-1.5-0.6c-0.3-0.4-0.4-1.1-0.4-2.1v-22.3
	c0-2.9-0.2-5-0.7-6.4c-0.5-1.4-1.3-2.6-2.4-3.6c-1.6-1.5-4.2-2.6-7.7-3.3c-3.5-0.7-8.3-1.1-14.3-1.1c-8.2,0-14,0.8-17.4,2.3
	c-3.4,1.5-5.2,4-5.2,7.5c0,2.4,0.9,4.3,2.6,5.5c1.7,1.2,4.3,1.9,7.6,1.9c3.6,0,6.4-0.6,8.2-1.8c1.9-1.2,2.8-2.9,2.8-5.2
	c0-2.2-0.8-4.1-2.3-5.5c-0.5-0.4-0.7-0.7-0.7-0.9c0-0.3,0.3-0.6,1-0.9c0.7-0.3,1.5-0.4,2.4-0.4c1.9,0,3.2,0.3,4.1,1
	c0.9,0.7,1.3,1.7,1.3,3.2v13.3h-5.4c-7.8,0-14,1.3-18.5,3.9c-4.5,2.6-6.8,6.2-6.8,10.6c0,3.7,1.3,6.6,3.9,8.8
	c2.6,2.2,6.1,3.3,10.4,3.3c3.6,0,6.9-0.6,9.8-1.7c2.9-1.2,5.5-2.9,7.7-5.2c1,2.3,2.4,4,4.2,5.2c1.8,1.2,3.9,1.7,6.3,1.7
	c2.6,0,5.2-0.6,7.7-1.7C380.4,466.2,382.1,464.2,383.7,462.1 M359.4,454.8c0,3.1-0.4,5.4-1.1,6.8c-0.7,1.4-1.9,2.1-3.5,2.1
	c-1.4,0-2.4-0.6-3.1-1.9c-0.6-1.3-1-3.2-1-5.8c0-4.2,0.5-7,1.6-8.5c1.1-1.5,3-2.3,5.8-2.3h1.3L359.4,454.8L359.4,454.8z"/>
</svg>
